<?xml version="1.0" encoding="UTF-8"?><svg id="a" xmlns="http://www.w3.org/2000/svg" viewBox="0 0 155.3871 71.8205"><path d="M1.3015,34.8554H5.7664c.0957,4.5122,3.8877,7.4888,8.9287,7.4888,4.6562,0,8.0645-2.2085,8.0645-6.0488,0-2.5918-1.7285-4.8003-5.7129-5.4243l-5.376-.8159c-5.1846-.7681-9.0732-3.6006-9.0732-9.0249,0-5.8564,5.665-10.1289,11.9053-10.1289,6.625,0,11.9053,4.2246,12.0967,10.6089h-4.4639c-.2402-4.1284-3.0723-6.6724-7.6807-6.6724-4.2246,0-7.4404,2.3042-7.4404,6.0005,0,3.168,2.5439,4.5122,5.0879,4.8965l5.665,.8638c5.6641,.8643,9.4561,4.3203,9.4561,9.6968,0,6.1445-5.7598,9.9849-12.5283,9.9849-7.6807,0-13.3936-4.5601-13.3936-11.4248Z" fill="#878787"/><path d="M60.1995,11.5731v3.9365h-18.002v10.4648h15.7451v4.0322h-15.7451v11.665h18.002v3.9365h-22.2744V11.5731h22.2744Z" fill="#878787"/><path d="M138.677,11.5731v30.0508h16.3691v3.9844h-20.6416V11.5731h4.2725Z" fill="#878787"/><polygon points="107.8965 17.0072 98.9232 1.4625 116.8719 1.4613 107.8965 17.0072" fill="#83b941"/><polygon points="75.5726 62.489 93.5213 62.4877 84.548 46.9431 75.5726 62.489" fill="#83b941"/><path d="M105.4631,45.6083h5.5576l-14.1934-29.8579c-1.4912-3.145-3.9766-4.8345-7.5986-5.1646l5.1211,11.2119-.0898,.1641-8.3369,15.3613,2.8154,4.8774,8.0889-15.1699,8.6357,18.5776Z" fill="#878787"/><g><path d="M1.6311,56.3886h1.3394c.0103,.7695,.6597,1.2695,1.5391,1.2695,.8799,0,1.5093-.3398,1.5093-1.0596,0-.5098-.4194-.7495-.9092-.8296l-1.3594-.2197c-1.1694-.1899-1.9292-.8096-1.9292-1.959,0-1.2793,1.2993-2.189,2.6987-2.189,1.4692,0,2.6685,.8896,2.6885,2.1987h-1.3193c-.0298-.6797-.6196-1.0991-1.3892-1.0991-.7197,0-1.3892,.3296-1.3892,.9995,0,.4297,.3496,.7095,.8594,.7896l1.3193,.2095c1.1592,.1802,2.0288,.8398,2.0288,2.0293,0,1.4092-1.269,2.2388-2.8281,2.2388-1.6094,0-2.8589-.9199-2.8589-2.3789Z" fill="#959595"/><path d="M9.0007,58.1776c-.5693-.5396-.7393-1.2793-.7393-2.0791,0-.7993,.1699-1.5288,.7393-2.0688,.3799-.3594,.9097-.5894,1.5693-.5894s1.1895,.23,1.5693,.5894c.5693,.54,.7393,1.2695,.7393,2.0688,0,.7998-.1699,1.5396-.7393,2.0791-.3799,.3599-.9097,.5898-1.5693,.5898s-1.1895-.23-1.5693-.5898Zm2.519-.5c.3696-.3696,.4893-.9092,.4893-1.5791,0-.6694-.1196-1.1992-.4893-1.5688-.21-.21-.54-.3599-.9497-.3599s-.7397,.1499-.9497,.3599c-.3696,.3696-.4893,.8994-.4893,1.5688,0,.6699,.1196,1.2095,.4893,1.5791,.21,.21,.54,.3599,.9497,.3599s.7397-.1499,.9497-.3599Z" fill="#959595"/><path d="M14.8108,54.2997h-1.0596v-.7197h1.0596v-.7993c0-.8398,.6094-1.4692,1.5889-1.4692,.3799,0,.5898,.0601,.7896,.1196v.6997c-.1997-.0498-.3896-.0996-.7192-.0996-.5298,0-.8096,.3296-.8096,.7793v.7695h1.4492v.7197h-1.4492v4.3276h-.8496v-4.3276Z" fill="#959595"/><path d="M18.7205,57.2479v-2.938h-1.1094v-.73h1.1094v-1.3394l.8496-.1997v1.5391h1.439v.73h-1.439v2.8384c0,.5195,.2695,.7593,.7393,.7593,.29,0,.5698-.0498,.7495-.0996v.7295c-.1899,.0698-.4595,.1499-.8892,.1499-1.0894,0-1.4492-.7598-1.4492-1.4395Z" fill="#959595"/><path d="M28.7673,53.58l-1.3491,5.0474h-.8296l-1.3491-3.918-1.3994,3.918h-.8096l-1.3394-5.0474h.8696l.9795,3.8081,1.3291-3.7578h.7397l1.3091,3.7578,.9897-3.8081h.8594Z" fill="#959595"/><path d="M29.511,57.2079c0-.6494,.4194-1.5088,1.7988-1.5889l1.5391-.0898v-.3501c0-.7192-.3701-1.0493-1.0996-1.0493-.6895,0-1.1592,.3496-1.1592,.9194h-.8296c.02-1.0293,.8896-1.6089,1.9888-1.6089,1.1797,0,1.9385,.6196,1.9385,1.749v2.4487c0,.2695,.1104,.3398,.2803,.3398,.04,0,.1396-.0103,.2197-.0303v.6299c-.1797,.0898-.3496,.1196-.5596,.1196-.4492,0-.7393-.3398-.7393-.7695-.2998,.4897-.9194,.8398-1.6392,.8398-1.1592,0-1.7388-.7798-1.7388-1.5596Zm3.3379-.7192v-.2998l-1.459,.0796c-.5,.0303-1.0098,.2998-1.0098,.9194,0,.4199,.2798,.8696,.9995,.8696,.9194,0,1.4692-.6895,1.4692-1.5688Z" fill="#959595"/><path d="M35.51,53.58h.7598l.0703,.8799c.2598-.6499,.8691-.9199,1.5088-.9199,.1299,0,.2705,.0103,.4004,.0303v.8496c-.1104-.0303-.2402-.0503-.4004-.0503-1.1094,0-1.4893,.8296-1.4893,1.8091v2.4487h-.8496v-5.0474Z" fill="#959595"/><path d="M39.7405,58.0077c-.4297-.4897-.6396-1.1592-.6396-1.8789,0-.6099,.1094-1.1494,.3994-1.6191,.3701-.6099,1.0498-1.0693,1.9492-1.0693,1.3789,0,2.2188,1.0991,2.2188,2.4385,0,.1602,0,.3599-.0195,.5098h-3.6582c0,.9395,.5693,1.6289,1.5293,1.6289,.5791,0,1.0488-.2896,1.2188-.8892h.8496c-.1396,.9595-1.0488,1.6392-2.0791,1.6392-.7295,0-1.3594-.29-1.7686-.7598Zm3.0586-2.3486c0-.8696-.4805-1.4995-1.3701-1.4995-.9287,0-1.3984,.7598-1.4189,1.4995h2.7891Z" fill="#959595"/><path d="M7.0881,61.5414v1.1689H3.4304v1.6494h3.208v1.1592H3.4304v1.939h3.6577v1.1694H2.1409v-7.0859H7.0881Z" fill="#959595"/><path d="M8.4807,63.58h.7397l.0698,.7798c.2598-.5996,.9897-.9194,1.5591-.9194,1.1494,0,1.7793,.6895,1.7793,1.8589v3.3281h-.8496v-3.208c0-.7397-.3398-1.2095-1.0894-1.2095-.8496,0-1.3594,.7397-1.3594,1.6792v2.7383h-.8496v-5.0474Z" fill="#959595"/><path d="M13.8909,69.4569c0-.5298,.3501-.8994,.7598-1.0796-.3101-.1396-.52-.4194-.52-.8096,0-.4497,.3501-.8096,.71-.9692-.3799-.2798-.6299-.8296-.6299-1.3296,0-1.1191,.8496-1.8286,1.999-1.8286,.4795,0,.8696,.1099,1.1792,.2998,.1699-.4497,.5596-.7197,1.0396-.7197,.0898,0,.1797,.0103,.25,.02v.6997c-.0601-.0103-.1201-.0103-.1899-.0103-.3301,0-.5698,.1802-.6196,.46,.21,.27,.3296,.5996,.3296,1.0493,0,1.0796-.8394,1.8091-1.9888,1.8091-.3301,0-.6299-.0498-.8896-.1602-.21,.0601-.4194,.2803-.4194,.5098,0,.3398,.2896,.4297,.6094,.4297h1.0996c.5996,0,1.2891,.1104,1.689,.52,.2397,.2397,.3999,.5698,.3999,.9893,0,1.1694-1.1797,1.5894-2.4888,1.5894-1.2495,0-2.3188-.3999-2.3188-1.4692Zm3.978-.1201c0-.7495-.7495-.7896-1.3594-.7896h-1.1694c-.3799,.1001-.6597,.3999-.6597,.7896,0,.7695,.8296,.8696,1.5791,.8696,.7695,0,1.6094-.1499,1.6094-.8696Zm-.4897-4.0977c0-.6396-.4297-1.1094-1.1694-1.1094-.7095,0-1.1694,.4697-1.1694,1.1094s.4297,1.1294,1.1694,1.1294c.7095,0,1.1694-.4897,1.1694-1.1294Z" fill="#959595"/><path d="M20.8206,61.4115v.999h-.9897v-.999h.9897Zm-.0601,2.1685v5.0474h-.8696v-5.0474h.8696Z" fill="#959595"/><path d="M22.5208,63.58h.7397l.0698,.7798c.2598-.5996,.9897-.9194,1.5591-.9194,1.1494,0,1.7793,.6895,1.7793,1.8589v3.3281h-.8496v-3.208c0-.7397-.3398-1.2095-1.0894-1.2095-.8496,0-1.3594,.7397-1.3594,1.6792v2.7383h-.8496v-5.0474Z" fill="#959595"/><path d="M28.7004,68.0077c-.4297-.4897-.6396-1.1592-.6396-1.8789,0-.6099,.1099-1.1494,.3999-1.6191,.3696-.6099,1.0493-1.0693,1.9487-1.0693,1.3794,0,2.2188,1.0991,2.2188,2.4385,0,.1602,0,.3599-.0195,.5098h-3.6582c0,.9395,.5698,1.6289,1.5293,1.6289,.5796,0,1.0493-.2896,1.2192-.8892h.8491c-.1396,.9595-1.0488,1.6392-2.0786,1.6392-.7295,0-1.3594-.29-1.769-.7598Zm3.0586-2.3486c0-.8696-.48-1.4995-1.3696-1.4995-.9292,0-1.3989,.7598-1.4189,1.4995h2.7886Z" fill="#959595"/><path d="M34.3801,68.0077c-.4297-.4897-.6396-1.1592-.6396-1.8789,0-.6099,.1094-1.1494,.3994-1.6191,.3701-.6099,1.0498-1.0693,1.9492-1.0693,1.3789,0,2.2188,1.0991,2.2188,2.4385,0,.1602,0,.3599-.0195,.5098h-3.6582c0,.9395,.5693,1.6289,1.5293,1.6289,.5791,0,1.0488-.2896,1.2188-.8892h.8496c-.1396,.9595-1.0488,1.6392-2.0791,1.6392-.7295,0-1.3594-.29-1.7686-.7598Zm3.0586-2.3486c0-.8696-.4805-1.4995-1.3701-1.4995-.9287,0-1.3984,.7598-1.4189,1.4995h2.7891Z" fill="#959595"/><path d="M39.7405,63.58h.7598l.0693,.8799c.2598-.6499,.8701-.9199,1.5098-.9199,.1299,0,.2695,.0103,.3994,.0303v.8496c-.1094-.0303-.2402-.0503-.3994-.0503-1.1094,0-1.4893,.8296-1.4893,1.8091v2.4487h-.8496v-5.0474Z" fill="#959595"/><path d="M44.5794,61.4115v.999h-.9893v-.999h.9893Zm-.0596,2.1685v5.0474h-.8701v-5.0474h.8701Z" fill="#959595"/><path d="M46.2795,63.58h.7402l.0693,.7798c.2598-.5996,.9902-.9194,1.5596-.9194,1.1494,0,1.7793,.6895,1.7793,1.8589v3.3281h-.8496v-3.208c0-.7397-.3398-1.2095-1.0898-1.2095-.8496,0-1.3594,.7397-1.3594,1.6792v2.7383h-.8496v-5.0474Z" fill="#959595"/><path d="M51.6907,69.4569c0-.5298,.3496-.8994,.7598-1.0796-.3105-.1396-.5205-.4194-.5205-.8096,0-.4497,.3506-.8096,.71-.9692-.3799-.2798-.6299-.8296-.6299-1.3296,0-1.1191,.8496-1.8286,1.999-1.8286,.4795,0,.8701,.1099,1.1797,.2998,.1699-.4497,.5596-.7197,1.0391-.7197,.0898,0,.1797,.0103,.25,.02v.6997c-.0596-.0103-.1201-.0103-.1895-.0103-.3301,0-.5703,.1802-.6201,.46,.21,.27,.3301,.5996,.3301,1.0493,0,1.0796-.8398,1.8091-1.9893,1.8091-.3301,0-.6299-.0498-.8896-.1602-.21,.0601-.4189,.2803-.4189,.5098,0,.3398,.2891,.4297,.6094,.4297h1.0996c.5996,0,1.2891,.1104,1.6885,.52,.2402,.2397,.4004,.5698,.4004,.9893,0,1.1694-1.1797,1.5894-2.4893,1.5894-1.249,0-2.3184-.3999-2.3184-1.4692Zm3.9775-.1201c0-.7495-.749-.7896-1.3594-.7896h-1.1689c-.3799,.1001-.6602,.3999-.6602,.7896,0,.7695,.8301,.8696,1.5791,.8696,.7695,0,1.6094-.1499,1.6094-.8696Zm-.4893-4.0977c0-.6396-.4297-1.1094-1.1699-1.1094-.709,0-1.1689,.4697-1.1689,1.1094s.4297,1.1294,1.1689,1.1294c.71,0,1.1699-.4897,1.1699-1.1294Z" fill="#959595"/></g><g><path d="M132.2258,51.6815v5.8667h3.2881v1.2192h-4.5771v-7.0859h1.2891Z" fill="#959595"/><path d="M136.9563,58.3178c-.5703-.5396-.7402-1.2793-.7402-2.0791,0-.7993,.1699-1.5288,.7402-2.0688,.3799-.3599,.9092-.5894,1.5684-.5894,.6602,0,1.1895,.2295,1.5693,.5894,.5703,.54,.7402,1.2695,.7402,2.0688,0,.7998-.1699,1.5396-.7402,2.0791-.3799,.3599-.9092,.5898-1.5693,.5898-.6592,0-1.1885-.23-1.5684-.5898Zm2.5186-.5c.3691-.3696,.4893-.9092,.4893-1.5791,0-.6694-.1201-1.1992-.4893-1.5688-.21-.21-.54-.3599-.9502-.3599-.4092,0-.7393,.1499-.9492,.3599-.3691,.3696-.4893,.8994-.4893,1.5688,0,.6699,.1201,1.2095,.4893,1.5791,.21,.21,.54,.3599,.9492,.3599,.4102,0,.7402-.1499,.9502-.3599Z" fill="#959595"/><path d="M141.8362,59.5971c0-.5298,.3496-.8994,.7598-1.0796-.3096-.1396-.5195-.4194-.5195-.8096,0-.4497,.3496-.8096,.709-.9692-.3799-.2798-.6289-.8296-.6289-1.3291,0-1.1196,.8486-1.8291,1.998-1.8291,.4805,0,.8701,.1099,1.1797,.2998,.1699-.4497,.5596-.7197,1.0391-.7197,.0908,0,.1807,.0098,.25,.02v.6997c-.0596-.0103-.1191-.0103-.1895-.0103-.3301,0-.5693,.1802-.6201,.46,.21,.27,.3301,.5996,.3301,1.0493,0,1.0796-.8398,1.8091-1.9893,1.8091-.3291,0-.6289-.0498-.8887-.1602-.21,.0601-.4199,.2803-.4199,.5098,0,.3398,.29,.4302,.6094,.4302h1.0996c.5996,0,1.2891,.1099,1.6885,.5195,.2402,.2397,.4004,.5698,.4004,.9893,0,1.1694-1.1797,1.5894-2.4893,1.5894-1.249,0-2.3184-.3999-2.3184-1.4692Zm3.9775-.1201c0-.7495-.749-.7896-1.3594-.7896h-1.1689c-.3799,.1001-.6592,.3999-.6592,.7896,0,.7695,.8291,.8696,1.5791,.8696,.7695,0,1.6084-.1499,1.6084-.8696Zm-.4893-4.0977c0-.6396-.4297-1.1094-1.1699-1.1094-.709,0-1.1689,.4697-1.1689,1.1094s.4297,1.1294,1.1689,1.1294c.71,0,1.1699-.4897,1.1699-1.1294Z" fill="#959595"/><path d="M148.7649,51.5516v.999h-.9893v-.999h.9893Zm-.0596,2.1685v5.0474h-.8691v-5.0474h.8691Z" fill="#959595"/><path d="M150.846,58.2875c-.46-.4697-.6904-1.1792-.6904-2.0488,0-.8193,.2305-1.4888,.6299-1.9487,.4199-.48,.9795-.7095,1.6992-.7095,1.2295,0,1.9893,.7896,2.0488,1.8389h-.8594c-.0801-.7095-.5801-1.0996-1.2295-1.0996-.4697,0-.8096,.2002-1.0391,.4897-.2705,.3398-.3799,.8296-.3799,1.4292,0,.6196,.1094,1.1396,.3896,1.4692,.2402,.29,.5791,.46,1.0293,.46,.6699,0,1.1797-.4199,1.249-1.0894h.8594c-.0791,1.0894-.9688,1.8291-2.0986,1.8291-.6797,0-1.2188-.2202-1.6084-.6201Z" fill="#959595"/></g><g><path d="M108.7044,67.0482h-2.8789l-.5293,1.5791h-1.3291l2.5283-7.0859h1.5889l2.5293,7.0859h-1.3799l-.5293-1.5791Zm-.3896-1.1392l-1.0498-3.1084-1.0488,3.1084h2.0986Z" fill="#959595"/><path d="M111.4163,67.5077v-6.1162h.8496v6.0166c0,.3398,.1094,.5195,.46,.5195,.0596,0,.1396,0,.3496-.02v.7197c-.1797,.0498-.2998,.0698-.5498,.0698-.6992,0-1.1094-.3896-1.1094-1.1895Z" fill="#959595"/><path d="M113.7864,69.4569c0-.5298,.3496-.8994,.7598-1.0796-.3096-.1396-.5195-.4194-.5195-.8096,0-.4497,.3496-.8096,.709-.9692-.3799-.2798-.6289-.8296-.6289-1.3291,0-1.1196,.8486-1.8291,1.998-1.8291,.4805,0,.8701,.1099,1.1797,.2998,.1699-.4497,.5596-.7197,1.0391-.7197,.0908,0,.1807,.0098,.25,.02v.6997c-.0596-.0103-.1191-.0103-.1895-.0103-.3301,0-.5693,.1802-.6201,.46,.21,.27,.3301,.5996,.3301,1.0493,0,1.0796-.8398,1.8091-1.9893,1.8091-.3291,0-.6289-.0498-.8887-.1602-.21,.0601-.4199,.2803-.4199,.5098,0,.3398,.29,.4302,.6094,.4302h1.0996c.5996,0,1.2891,.1099,1.6885,.5195,.2402,.2397,.4004,.5698,.4004,.9893,0,1.1694-1.1797,1.5894-2.4893,1.5894-1.249,0-2.3184-.3999-2.3184-1.4692Zm3.9775-.1201c0-.7495-.749-.7896-1.3594-.7896h-1.1689c-.3799,.1001-.6592,.3999-.6592,.7896,0,.7695,.8291,.8696,1.5791,.8696,.7695,0,1.6084-.1499,1.6084-.8696Zm-.4893-4.0977c0-.6396-.4297-1.1094-1.1699-1.1094-.709,0-1.1689,.4697-1.1689,1.1094s.4297,1.1294,1.1689,1.1294c.71,0,1.1699-.4897,1.1699-1.1294Z" fill="#959595"/><path d="M120.2161,68.1776c-.5703-.5396-.7402-1.2793-.7402-2.0791,0-.7993,.1699-1.5288,.7402-2.0688,.3799-.3599,.9092-.5894,1.5693-.5894,.6592,0,1.1885,.2295,1.5684,.5894,.5703,.54,.7402,1.2695,.7402,2.0688,0,.7998-.1699,1.5396-.7402,2.0791-.3799,.3599-.9092,.5898-1.5684,.5898-.6602,0-1.1895-.23-1.5693-.5898Zm2.5186-.5c.3691-.3696,.4893-.9092,.4893-1.5791,0-.6694-.1201-1.1992-.4893-1.5688-.21-.21-.54-.3599-.9492-.3599-.4102,0-.7402,.1499-.9502,.3599-.3691,.3696-.4893,.8994-.4893,1.5688,0,.6699,.1201,1.2095,.4893,1.5791,.21,.21,.54,.3599,.9502,.3599,.4092,0,.7393-.1499,.9492-.3599Z" fill="#959595"/><path d="M125.5462,63.58h.7588l.0703,.8799c.2598-.6499,.8691-.9199,1.5088-.9199,.1309,0,.2705,.0103,.4004,.0303v.8496c-.1104-.0303-.2402-.0503-.4004-.0503-1.1094,0-1.4883,.8296-1.4883,1.8091v2.4487h-.8496v-5.0474Z" fill="#959595"/><path d="M130.385,61.4115v.999h-.9893v-.999h.9893Zm-.0596,2.1685v5.0474h-.8691v-5.0474h.8691Z" fill="#959595"/><path d="M132.5852,67.2479v-2.9385h-1.1094v-.7295h1.1094v-1.3394l.8496-.1997v1.5391h1.4395v.7295h-1.4395v2.8389c0,.5195,.2705,.7593,.7402,.7593,.2891,0,.5693-.0498,.749-.0996v.7295c-.1895,.0698-.46,.1499-.8896,.1499-1.0889,0-1.4492-.7598-1.4492-1.4395Z" fill="#959595"/><path d="M137.0256,61.3915v2.8584c.2891-.5298,.9795-.8096,1.5186-.8096,1.1494,0,1.7793,.6797,1.7793,1.8589v3.3281h-.8496v-3.208c0-.7598-.3398-1.2095-1.1094-1.2095-.8398,0-1.3389,.7393-1.3389,1.7188v2.6987h-.8496v-7.2358h.8496Z" fill="#959595"/><path d="M142.0364,63.58h.7393l.0801,.7397c.2695-.5898,.8594-.8794,1.4395-.8794,.7588,0,1.2891,.3398,1.5088,.9595,.2803-.6299,.9395-.9595,1.5791-.9595,1.1592,0,1.709,.7393,1.709,1.8589v3.3281h-.8496v-3.2183c0-.6997-.2793-1.1992-1.0293-1.1992-.7695,0-1.2393,.6797-1.2393,1.5293v2.8882h-.8398v-3.1885c0-.6992-.25-1.229-1.0088-1.229-.75,0-1.2393,.7095-1.2393,1.5293v2.8882h-.8496v-5.0474Z" fill="#959595"/><path d="M150.3958,67.0282h.8496c.0195,.6797,.5693,1.0293,1.3193,1.0293,.6094,0,1.1797-.2695,1.1797-.8394,0-.3799-.2803-.6196-.7998-.6997l-1.1191-.1797c-.7402-.1201-1.25-.5801-1.25-1.3496,0-.9194,.8994-1.5488,1.9092-1.5488,1.1191,0,1.9688,.6396,1.9688,1.6089h-.8496c-.0195-.5698-.4795-.8994-1.1191-.8994-.6201,0-1.0996,.2998-1.0996,.7993,0,.3799,.2803,.5601,.6895,.6299l1.1895,.1899c.7197,.1201,1.3096,.6294,1.3096,1.3892,0,1.0396-.9092,1.6094-2.0488,1.6094-1.1992,0-2.1289-.6699-2.1289-1.7393Z" fill="#959595"/></g><polygon points="71.4473 17.6708 83.7789 10.5516 81.2734 5.0697 65.4473 14.207 65.4473 49.7431 80.8345 58.6274 83.8345 53.4311 71.4473 46.2792 71.4473 17.6708" fill="#83b941"/><polygon points="111.6099 5.3232 108.6099 10.5195 120.9976 17.6708 120.9976 46.2792 108.4476 53.5247 110.9534 59.0064 126.9976 49.7431 126.9976 14.207 111.6099 5.3232" fill="#83b941"/></svg>